<mxfile host="app.diagrams.net" modified="2023-01-04T08:02:22.833Z" agent="5.0 (Macintosh; Intel Mac OS X 10_15_7) AppleWebKit/537.36 (KHTML, like Gecko) Chrome/108.0.0.0 Safari/537.36" etag="V3jSWx4VeIyR0J33eMpU" version="20.8.1" type="github" pages="2">
  <diagram id="kgpKYQtTHZ0yAKxKKP6v" name="Page-1">
    <mxGraphModel dx="613" dy="574" grid="1" gridSize="10" guides="1" tooltips="1" connect="1" arrows="1" fold="1" page="1" pageScale="1" pageWidth="850" pageHeight="1100" math="0" shadow="0">
      <root>
        <mxCell id="0" />
        <mxCell id="1" parent="0" />
        <mxCell id="3nuBFxr9cyL0pnOWT2aG-1" value="Admintratior" style="shape=umlLifeline;perimeter=lifelinePerimeter;container=1;collapsible=0;recursiveResize=0;rounded=0;shadow=0;strokeWidth=1;" parent="1" vertex="1">
          <mxGeometry x="50" y="20" width="100" height="360" as="geometry" />
        </mxCell>
        <mxCell id="3nuBFxr9cyL0pnOWT2aG-5" value="Dlink Router" style="shape=umlLifeline;perimeter=lifelinePerimeter;container=1;collapsible=0;recursiveResize=0;rounded=0;shadow=0;strokeWidth=1;" parent="1" vertex="1">
          <mxGeometry x="425" y="20" width="100" height="350" as="geometry" />
        </mxCell>
        <mxCell id="Mfj2aowYsztfsvZFqWXX-1" value="DTLS client Hello" style="endArrow=classic;rounded=0;exitX=0.49;exitY=0.203;exitDx=0;exitDy=0;exitPerimeter=0;html=1;" edge="1" parent="1" source="3nuBFxr9cyL0pnOWT2aG-1" target="3nuBFxr9cyL0pnOWT2aG-5">
          <mxGeometry width="50" height="50" relative="1" as="geometry">
            <mxPoint x="270" y="260" as="sourcePoint" />
            <mxPoint x="320" y="210" as="targetPoint" />
          </mxGeometry>
        </mxCell>
        <mxCell id="Mfj2aowYsztfsvZFqWXX-5" value="DTLS Hello" style="endArrow=classic;html=1;rounded=0;exitX=0.51;exitY=0.287;exitDx=0;exitDy=0;exitPerimeter=0;" edge="1" parent="1" source="3nuBFxr9cyL0pnOWT2aG-5" target="3nuBFxr9cyL0pnOWT2aG-1">
          <mxGeometry width="50" height="50" relative="1" as="geometry">
            <mxPoint x="270" y="260" as="sourcePoint" />
            <mxPoint x="320" y="210" as="targetPoint" />
          </mxGeometry>
        </mxCell>
        <mxCell id="dOExOIGCh-SjuzaRZm8u-1" value="" style="endArrow=classic;html=1;rounded=0;exitX=0.52;exitY=0.363;exitDx=0;exitDy=0;exitPerimeter=0;" edge="1" parent="1" source="3nuBFxr9cyL0pnOWT2aG-1" target="3nuBFxr9cyL0pnOWT2aG-5">
          <mxGeometry width="50" height="50" relative="1" as="geometry">
            <mxPoint x="270" y="260" as="sourcePoint" />
            <mxPoint x="320" y="210" as="targetPoint" />
          </mxGeometry>
        </mxCell>
        <mxCell id="dOExOIGCh-SjuzaRZm8u-2" value="" style="endArrow=classic;html=1;rounded=0;exitX=0.52;exitY=0.454;exitDx=0;exitDy=0;exitPerimeter=0;" edge="1" parent="1" source="3nuBFxr9cyL0pnOWT2aG-5" target="3nuBFxr9cyL0pnOWT2aG-1">
          <mxGeometry width="50" height="50" relative="1" as="geometry">
            <mxPoint x="475" y="180" as="sourcePoint" />
            <mxPoint x="99.5" y="180" as="targetPoint" />
          </mxGeometry>
        </mxCell>
        <mxCell id="dOExOIGCh-SjuzaRZm8u-11" value="dispatch" style="verticalAlign=bottom;startArrow=oval;endArrow=block;startSize=8;shadow=0;strokeWidth=1;" edge="1" parent="1" target="dOExOIGCh-SjuzaRZm8u-17">
          <mxGeometry relative="1" as="geometry">
            <mxPoint x="750" y="90" as="sourcePoint" />
          </mxGeometry>
        </mxCell>
        <mxCell id="dOExOIGCh-SjuzaRZm8u-12" value="return" style="verticalAlign=bottom;endArrow=open;dashed=1;endSize=8;exitX=0;exitY=0.95;shadow=0;strokeWidth=1;" edge="1" parent="1" source="dOExOIGCh-SjuzaRZm8u-18" target="dOExOIGCh-SjuzaRZm8u-17">
          <mxGeometry relative="1" as="geometry">
            <mxPoint x="1015" y="-94" as="targetPoint" />
          </mxGeometry>
        </mxCell>
        <mxCell id="dOExOIGCh-SjuzaRZm8u-13" value="dispatch" style="verticalAlign=bottom;endArrow=block;entryX=0;entryY=0;shadow=0;strokeWidth=1;" edge="1" parent="1" source="dOExOIGCh-SjuzaRZm8u-17" target="dOExOIGCh-SjuzaRZm8u-18">
          <mxGeometry relative="1" as="geometry">
            <mxPoint x="1015" y="-170" as="sourcePoint" />
          </mxGeometry>
        </mxCell>
        <mxCell id="dOExOIGCh-SjuzaRZm8u-14" value="callback" style="verticalAlign=bottom;endArrow=block;entryX=1;entryY=0;shadow=0;strokeWidth=1;" edge="1" parent="1" source="dOExOIGCh-SjuzaRZm8u-18" target="dOExOIGCh-SjuzaRZm8u-16">
          <mxGeometry relative="1" as="geometry">
            <mxPoint x="980" y="-130" as="sourcePoint" />
          </mxGeometry>
        </mxCell>
        <mxCell id="dOExOIGCh-SjuzaRZm8u-15" value="return" style="verticalAlign=bottom;endArrow=open;dashed=1;endSize=8;exitX=1;exitY=0.95;shadow=0;strokeWidth=1;" edge="1" parent="1" source="dOExOIGCh-SjuzaRZm8u-16" target="dOExOIGCh-SjuzaRZm8u-18">
          <mxGeometry relative="1" as="geometry">
            <mxPoint x="980" y="-73" as="targetPoint" />
          </mxGeometry>
        </mxCell>
        <mxCell id="dOExOIGCh-SjuzaRZm8u-16" value="" style="points=[];perimeter=orthogonalPerimeter;rounded=0;shadow=0;strokeWidth=1;" vertex="1" parent="1">
          <mxGeometry x="980" y="150" width="10" height="80" as="geometry" />
        </mxCell>
        <mxCell id="dOExOIGCh-SjuzaRZm8u-17" value="" style="points=[];perimeter=orthogonalPerimeter;rounded=0;shadow=0;strokeWidth=1;" vertex="1" parent="1">
          <mxGeometry x="790" y="80" width="10" height="190" as="geometry" />
        </mxCell>
        <mxCell id="dOExOIGCh-SjuzaRZm8u-18" value="" style="points=[];perimeter=orthogonalPerimeter;rounded=0;shadow=0;strokeWidth=1;" vertex="1" parent="1">
          <mxGeometry x="1290" y="120" width="10" height="160" as="geometry" />
        </mxCell>
      </root>
    </mxGraphModel>
  </diagram>
  <diagram id="3HSPy3TqpW1nLgcwgX99" name="第 2 页">
    <mxGraphModel dx="613" dy="574" grid="1" gridSize="10" guides="1" tooltips="1" connect="1" arrows="1" fold="1" page="1" pageScale="1" pageWidth="827" pageHeight="1169" math="0" shadow="0">
      <root>
        <mxCell id="0" />
        <mxCell id="1" parent="0" />
        <mxCell id="fkEgmH5i-4D5yIoED8C2-1" value="" style="rounded=1;whiteSpace=wrap;html=1;" vertex="1" parent="1">
          <mxGeometry x="90" y="120" width="120" height="30" as="geometry" />
        </mxCell>
        <mxCell id="fkEgmH5i-4D5yIoED8C2-2" value="" style="rounded=1;whiteSpace=wrap;html=1;" vertex="1" parent="1">
          <mxGeometry x="90" y="200" width="120" height="30" as="geometry" />
        </mxCell>
        <mxCell id="fkEgmH5i-4D5yIoED8C2-3" value="" style="rounded=1;whiteSpace=wrap;html=1;" vertex="1" parent="1">
          <mxGeometry x="90" y="160" width="120" height="30" as="geometry" />
        </mxCell>
        <mxCell id="fkEgmH5i-4D5yIoED8C2-4" value="" style="rounded=1;whiteSpace=wrap;html=1;" vertex="1" parent="1">
          <mxGeometry x="90" y="240" width="120" height="30" as="geometry" />
        </mxCell>
        <mxCell id="fkEgmH5i-4D5yIoED8C2-5" value="" style="rounded=1;whiteSpace=wrap;html=1;" vertex="1" parent="1">
          <mxGeometry x="90" y="280" width="120" height="30" as="geometry" />
        </mxCell>
        <mxCell id="fkEgmH5i-4D5yIoED8C2-6" value="" style="rounded=1;whiteSpace=wrap;html=1;" vertex="1" parent="1">
          <mxGeometry x="90" y="320" width="120" height="30" as="geometry" />
        </mxCell>
      </root>
    </mxGraphModel>
  </diagram>
</mxfile>
